<svg width="121" height="141" viewBox="0 0 121 141" fill="none" xmlns="http://www.w3.org/2000/svg">
<g clip-path="url(#clip0_143_2360)">
<path d="M49.9 100.01C49.07 96.76 46.47 92.06 44.06 87.93C40.36 82.55 39.32 75.41 39.95 70.9C41.1 62.62 48.02 57.66 50.12 56.34L59.32 50.52L71.52 69.36L89.61 30.4L89.7 30.21C91.44 25.26 89.17 19.7 84.31 17.44L48.78 0.960026C43.61 -1.43997 37.47 0.800025 35.07 5.97003L0.960026 79.35C-1.43997 84.52 0.800025 90.66 5.97003 93.06L41.5 109.55C44.57 110.98 47.97 110.76 50.74 109.27C50.68 108.6 50.48 102.27 49.9 100.02V100.01Z" fill="#4374BA"/>
<path d="M61.83 109.82C62.13 112.98 62.89 115.99 64.04 118.79C66.58 124.94 68.83 128.57 74.45 131.1C74.45 131.1 71.75 120.86 80.4 100.6C82.55 95.56 95.16 68.58 104.55 48.84C107.02 43.66 104.78 37.46 99.58 35.04L73.1 92.06L57.42 67.86L55.99 65.65C55.99 65.65 51.38 68.57 50.84 72.43C50.53 74.64 51.23 79.17 53.3 81.95L53.32 81.99C58.31 90.55 60.25 94.86 60.77 98.41C61.19 101.24 61.54 106.97 61.81 109.82H61.83Z" fill="#1D59A8"/>
<path d="M90.42 105.25C86.98 112.66 84.95 119.89 84.54 125.03C84.35 127.38 84.77 131.56 86.61 134.24C88.32 136.73 90.44 138.57 93.7 140.04C93.7 140.04 91 129.8 99.65 109.54C101.8 104.5 110.51 85.91 119.91 66.17C122.38 60.99 120.14 54.79 114.94 52.37C114.94 52.37 96.33 92.49 90.41 105.24L90.42 105.25Z" fill="#1D59A8"/>
</g>
<defs>
<clipPath id="clip0_143_2360">
<rect width="120.93" height="140.03" fill="white"/>
</clipPath>
</defs>
</svg>
